<?xml version="1.0" encoding="UTF-8" standalone="no"?>
<!-- Created with Inkscape (http://www.inkscape.org/) -->

<svg
   xmlns:dc="http://purl.org/dc/elements/1.1/"
   xmlns:cc="http://creativecommons.org/ns#"
   xmlns:rdf="http://www.w3.org/1999/02/22-rdf-syntax-ns#"
   xmlns:svg="http://www.w3.org/2000/svg"
   xmlns="http://www.w3.org/2000/svg"
   xmlns:sodipodi="http://sodipodi.sourceforge.net/DTD/sodipodi-0.dtd"
   xmlns:inkscape="http://www.inkscape.org/namespaces/inkscape"
   width="210mm"
   height="297mm"
   viewBox="0 0 210 297"
   version="1.1"
   id="svg8"
   inkscape:version="0.92.1 r15371"
   sodipodi:docname="white-line-art-dark-circle-background.svg"
   inkscape:export-filename="D:\Robotics\modern-logo t-shirt.png"
   inkscape:export-xdpi="136.97"
   inkscape:export-ydpi="136.97">
  <defs
     id="defs2">
    <inkscape:path-effect
       effect="bspline"
       id="path-effect5307"
       is_visible="true"
       weight="33.333333"
       steps="2"
       helper_size="0"
       apply_no_weight="true"
       apply_with_weight="true"
       only_selected="false" />
    <inkscape:path-effect
       effect="bspline"
       id="path-effect5303"
       is_visible="true"
       weight="33.333333"
       steps="2"
       helper_size="0"
       apply_no_weight="true"
       apply_with_weight="true"
       only_selected="false" />
    <inkscape:path-effect
       effect="bspline"
       id="path-effect5299"
       is_visible="true"
       weight="33.333333"
       steps="2"
       helper_size="0"
       apply_no_weight="true"
       apply_with_weight="true"
       only_selected="false" />
    <inkscape:path-effect
       effect="bspline"
       id="path-effect5295"
       is_visible="true"
       weight="33.333333"
       steps="2"
       helper_size="0"
       apply_no_weight="true"
       apply_with_weight="true"
       only_selected="false" />
    <inkscape:path-effect
       effect="bspline"
       id="path-effect5291"
       is_visible="true"
       weight="33.333333"
       steps="2"
       helper_size="0"
       apply_no_weight="true"
       apply_with_weight="true"
       only_selected="false" />
    <inkscape:path-effect
       effect="bspline"
       id="path-effect5287"
       is_visible="true"
       weight="33.333333"
       steps="2"
       helper_size="0"
       apply_no_weight="true"
       apply_with_weight="true"
       only_selected="false" />
    <inkscape:path-effect
       effect="bspline"
       id="path-effect5253"
       is_visible="true"
       weight="33.333333"
       steps="2"
       helper_size="0"
       apply_no_weight="true"
       apply_with_weight="true"
       only_selected="false" />
    <inkscape:path-effect
       effect="bspline"
       id="path-effect5249"
       is_visible="true"
       weight="33.333333"
       steps="2"
       helper_size="0"
       apply_no_weight="true"
       apply_with_weight="true"
       only_selected="false" />
    <inkscape:path-effect
       effect="bspline"
       id="path-effect5245"
       is_visible="true"
       weight="33.333333"
       steps="2"
       helper_size="0"
       apply_no_weight="true"
       apply_with_weight="true"
       only_selected="false" />
    <inkscape:path-effect
       effect="bspline"
       id="path-effect5241"
       is_visible="true"
       weight="33.333333"
       steps="2"
       helper_size="0"
       apply_no_weight="true"
       apply_with_weight="true"
       only_selected="false" />
    <inkscape:path-effect
       effect="bspline"
       id="path-effect5237"
       is_visible="true"
       weight="33.333333"
       steps="2"
       helper_size="0"
       apply_no_weight="true"
       apply_with_weight="true"
       only_selected="false" />
    <inkscape:path-effect
       effect="bspline"
       id="path-effect5253-3"
       is_visible="true"
       weight="33.333333"
       steps="2"
       helper_size="0"
       apply_no_weight="true"
       apply_with_weight="true"
       only_selected="false" />
    <inkscape:path-effect
       effect="bspline"
       id="path-effect5249-1"
       is_visible="true"
       weight="33.333333"
       steps="2"
       helper_size="0"
       apply_no_weight="true"
       apply_with_weight="true"
       only_selected="false" />
    <inkscape:path-effect
       effect="bspline"
       id="path-effect5245-6"
       is_visible="true"
       weight="33.333333"
       steps="2"
       helper_size="0"
       apply_no_weight="true"
       apply_with_weight="true"
       only_selected="false" />
    <inkscape:path-effect
       effect="bspline"
       id="path-effect5307-8"
       is_visible="true"
       weight="33.333333"
       steps="2"
       helper_size="0"
       apply_no_weight="true"
       apply_with_weight="true"
       only_selected="false" />
    <inkscape:path-effect
       effect="bspline"
       id="path-effect5303-0"
       is_visible="true"
       weight="33.333333"
       steps="2"
       helper_size="0"
       apply_no_weight="true"
       apply_with_weight="true"
       only_selected="false" />
  </defs>
  <sodipodi:namedview
     id="base"
     pagecolor="#ffffff"
     bordercolor="#666666"
     borderopacity="1.0"
     inkscape:pageopacity="0.0"
     inkscape:pageshadow="2"
     inkscape:zoom="0.98994951"
     inkscape:cx="382.26412"
     inkscape:cy="502.66456"
     inkscape:document-units="mm"
     inkscape:current-layer="layer4"
     showgrid="false"
     inkscape:window-width="1920"
     inkscape:window-height="1017"
     inkscape:window-x="-8"
     inkscape:window-y="-8"
     inkscape:window-maximized="1" />
  <metadata
     id="metadata5">
    <rdf:RDF>
      <cc:Work
         rdf:about="">
        <dc:format>image/svg+xml</dc:format>
        <dc:type
           rdf:resource="http://purl.org/dc/dcmitype/StillImage" />
        <dc:title />
      </cc:Work>
    </rdf:RDF>
  </metadata>
  <g
     inkscape:groupmode="layer"
     id="layer1"
     inkscape:label="Background">
    <circle
       style="display:inline;opacity:1;fill:#353839;fill-opacity:1;stroke:none;stroke-width:1.5;stroke-linecap:round;stroke-linejoin:round;stroke-miterlimit:4;stroke-dasharray:none;stroke-opacity:0.84705882;paint-order:normal"
       id="path6304"
       cx="103.44159"
       cy="164.42603"
       r="85" />
  </g>
  <g
     inkscape:groupmode="layer"
     id="layer4"
     inkscape:label="Bird"
     style="display:inline">
    <path
       style="fill:none;fill-opacity:1;stroke:#d2d2d2;stroke-width:1.60000002;stroke-linecap:butt;stroke-linejoin:miter;stroke-miterlimit:4;stroke-dasharray:none;stroke-opacity:1"
       d="m 60.857196,160.348 c 3.06393,-1.22542 6.129018,-2.4513 8.697291,-3.9671 2.568273,-1.5158 4.640999,-3.32153 5.971761,-6.2781 1.330762,-2.95656 1.920295,-7.0627 2.509983,-11.16992 0,0 2.934073,0.51699 2.934073,0.51699 0,0 14.670309,21.71365 14.670309,21.71365 -1.697148,0.14361 -3.393253,0.28714 -5.162957,1.40746 -1.769704,1.12032 -3.609574,3.21573 -5.537405,5.70081 -1.927831,2.48508 -3.940425,5.35586 -5.839462,9.37786 -1.899037,4.022 -3.68181,9.18994 -5.091407,13.15385 -1.409597,3.9639 -2.444919,6.72059 -3.377511,9.21325 -0.932592,2.49266 -1.771777,4.74635 -2.605973,6.98664 -0.949259,-2.01053 -1.898704,-4.02145 -2.430784,-6.779 -0.53208,-2.75755 -0.647137,-6.2616 -0.359299,-9.19131 0.287837,-2.92971 0.97821,-5.2849 1.898856,-7.48211 0.920646,-2.19721 2.071251,-4.23645 3.437663,-6.4193 1.366412,-2.18284 2.947747,-4.50818 4.529842,-6.83464 -1.655279,1.03483 -3.308712,2.06851 -5.149883,3.21336 -1.841171,1.14486 -3.864548,2.39746 -5.785163,3.3743 -1.920615,0.97684 -3.734077,1.67518 -5.547489,2.37351 0.944319,-2.06098 1.889165,-4.12312 3.174321,-6.18684 1.285156,-2.06373 2.910816,-4.13025 3.914844,-5.39748 1.004029,-1.26724 1.385538,-1.73414 1.767914,-2.20211 0,0 -6.619524,-5.12377 -6.619524,-5.12377 z"
       id="path5235"
       inkscape:connector-curvature="0"
       inkscape:path-effect="#path-effect5237"
       inkscape:original-d="m 60.857196,160.348 c 0,0 6.128813,-2.45181 9.19179,-3.67625 2.073703,-1.80673 4.146434,-3.61246 6.218182,-5.41721 0.590652,-4.10818 1.769063,-12.32166 1.769063,-12.32166 l 2.934073,0.51699 14.670309,21.71365 c 0,0 -3.393321,0.28633 -5.091443,0.43084 -1.841173,2.09698 -3.681027,4.1924 -5.522967,6.29004 -2.01359,2.87261 -4.026169,5.7434 -6.040714,8.61652 -1.783164,5.17093 -3.565936,10.33887 -5.350355,15.50972 -1.034816,2.75696 -2.070129,5.51365 -3.106648,8.27188 -0.828675,2.22709 -2.502588,6.72087 -2.502588,6.72087 0,0 -1.897554,-4.02199 -2.847777,-6.03158 -0.11408,-3.505 -0.229143,-7.00905 -0.34517,-10.51213 0.691342,-2.35612 1.381708,-4.71131 2.071103,-7.06551 1.151583,-2.04023 2.302192,-4.07947 3.451837,-6.11777 1.583068,-2.32743 4.746285,-6.97937 4.746285,-6.97937 0,0 -3.308879,2.06824 -4.965836,3.10449 -2.025381,1.25347 -4.048759,2.50606 -6.076464,3.7617 -1.81356,0.69779 -5.440235,2.09498 -5.440235,2.09498 0,0 1.889598,-4.12292 2.832956,-6.18295 1.626643,-2.06752 3.252303,-4.13404 4.876994,-6.19958 0.38334,-0.46895 1.147129,-1.4039 1.147129,-1.4039 z"
       sodipodi:nodetypes="ccscccccccccscccccccsccc" />
    <path
       style="fill:none;fill-opacity:1;stroke:#d2d2d2;stroke-width:1.60000002;stroke-linecap:butt;stroke-linejoin:miter;stroke-miterlimit:4;stroke-dasharray:none;stroke-opacity:1"
       d="m 77.749075,126.10488 c -1.189551,-1.564 -3.568431,-4.6917 -5.947422,-7.81954 0,0 9.693041,-0.24474 9.693041,-0.24474 3.582371,3.00341 7.164826,6.00688 9.675513,8.33454 2.510687,2.32766 3.947518,3.97706 4.973918,5.26289 1.026399,1.28583 1.635973,2.20014 2.625185,3.94409 0.989213,1.74395 2.3572,4.31634 3.00988,8.60415 0.65267,4.28782 0.58983,10.29268 0.527,16.29657 0,0 -2.864879,0.20791 -2.864879,0.20791 0,0 -12.600745,-18.24794 -12.600745,-18.24794 0,0 2.318755,-0.21338 2.318755,-0.21338 -0.8136,-1.17795 -1.627334,-2.35609 -2.313827,-3.38174 -0.686494,-1.02565 -1.245839,-1.89891 -2.54252,-3.73689 -1.296682,-1.83797 -3.330665,-4.64064 -4.347619,-6.04192 -1.016954,-1.40128 -1.016729,-1.40001 -2.20628,-2.964 z"
       id="path5239"
       inkscape:connector-curvature="0"
       inkscape:path-effect="#path-effect5241"
       inkscape:original-d="m 78.938626,127.66887 c -2.378036,-3.1288 -7.136973,-9.38353 -7.136973,-9.38353 l 9.693041,-0.24474 c 0,0 7.165709,6.00583 10.747114,9.01022 1.440122,1.65108 2.876935,3.30049 4.317382,4.95609 0.612456,0.9162 1.222026,1.83051 1.83156,2.74718 1.36892,2.57137 2.73691,5.14376 4.10393,7.71709 -0.0617,6.00292 -0.18849,18.01166 -0.18849,18.01166 l -2.864879,0.20791 -12.600745,-18.24794 2.318755,-0.21338 c 0,0 -1.626226,-2.35686 -2.440799,-3.53385 -0.558395,-0.87426 -1.117745,-1.74752 -1.678068,-2.61984 -2.033063,-2.80371 -4.067053,-5.60637 -6.102053,-8.40814 z"
       sodipodi:nodetypes="ccccccscccccccc" />
    <path
       style="display:inline;fill:none;fill-opacity:1;stroke:#d2d2d2;stroke-width:1.60000002;stroke-linecap:butt;stroke-linejoin:miter;stroke-miterlimit:4;stroke-dasharray:none;stroke-opacity:1"
       d="m 66.583056,95.812839 c 6.12239,0.345242 12.245652,0.690532 18.03231,1.655287 5.786657,0.964755 11.237803,2.548884 15.610814,4.133014 4.37301,1.58414 7.66772,3.16807 10.96283,4.7522 0,0 -0.73223,29.42827 -0.73223,29.42827 -4.33247,-2.37621 -8.66462,-4.75224 -12.529389,-7.51438 -3.864774,-2.76214 -7.261634,-5.91013 -10.658447,-9.05807 0,0 4.271464,0.12183 4.271464,0.12183 -4.495173,-4.24465 -8.990309,-8.48927 -13.149874,-12.40898 -4.159566,-3.9197 -7.983533,-7.514465 -11.807478,-11.109208 0,0 0,3.7e-5 0,3.7e-5 z"
       id="path5243"
       inkscape:connector-curvature="0"
       inkscape:path-effect="#path-effect5245-6"
       inkscape:original-d="m 66.583056,95.812839 c 0,0 12.24571,0.68951 18.367171,1.035725 5.45213,1.583168 10.903279,3.167286 16.353443,4.752386 3.29608,1.58317 9.88534,4.75239 9.88534,4.75239 l -0.73223,29.42827 c 0,0 -8.66399,-4.75338 -12.997396,-7.12862 -3.395841,-3.1489 -10.19044,-9.44383 -10.19044,-9.44383 l 4.271464,0.12183 c 0,0 -8.989385,-8.49025 -13.485518,-12.73396 C 74.231906,103.00131 66.583056,95.812802 66.583056,95.812802 Z"
       sodipodi:nodetypes="cssccsccsc" />
    <path
       style="display:inline;fill:none;fill-opacity:1;stroke:#d2d2d2;stroke-width:1.60000002;stroke-linecap:butt;stroke-linejoin:miter;stroke-miterlimit:4;stroke-dasharray:none;stroke-opacity:1"
       d="m 113.79435,139.84999 c 0,0 1.20815,-30.9333 1.20815,-30.9333 2.93405,1.6084 5.86844,3.21698 8.54343,5.39971 2.67499,2.18273 5.09134,4.94009 7.50765,7.69739 0,0 0.3452,-8.27191 0.3452,-8.27191 1.92729,2.41263 3.85448,4.82515 5.65228,7.43874 1.79779,2.61359 3.46617,5.42833 4.64554,7.95568 1.17936,2.52735 1.86992,4.76829 2.56029,7.00859 0,0 -21.05625,12.92476 -21.05625,12.92476 -1.17937,-1.78074 -2.3589,-3.5617 -3.92643,-5.09813 -1.56753,-1.53643 -3.5238,-2.82905 -5.47986,-4.12153 z"
       id="path5247"
       inkscape:connector-curvature="0"
       inkscape:path-effect="#path-effect5249-1"
       inkscape:original-d="m 113.79435,139.84999 1.20815,-30.9333 c 0,0 5.86907,3.21583 8.80216,4.82519 2.41728,2.75636 7.24892,8.27191 7.24892,8.27191 l 0.3452,-8.27191 c 0,0 3.85553,4.82431 5.78186,7.23789 1.66933,2.81378 3.33772,5.62851 5.00515,8.44421 0.69133,2.23931 2.0711,6.72091 2.0711,6.72091 l -21.05625,12.92476 c 0,0 -2.35777,-3.56245 -3.53812,-5.34222 -1.95511,-1.29345 -5.86817,-3.87744 -5.86817,-3.87744 z"
       sodipodi:nodetypes="ccsccssccsc" />
    <path
       style="display:inline;fill:none;fill-opacity:1;stroke:#d2d2d2;stroke-width:1.60000002;stroke-linecap:butt;stroke-linejoin:miter;stroke-miterlimit:4;stroke-dasharray:none;stroke-opacity:1"
       d="m 129.02617,148.96876 c 3.23667,-2.08269 9.70774,-6.24662 16.17994,-10.41127 1.06432,3.44661 2.12845,6.89263 2.64634,10.49703 0.51788,3.60439 0.48914,7.36789 0.46041,11.13044 0,0 -3.4518,1.63715 -3.4518,1.63715 -2.05673,-0.41645 -4.11274,-0.83276 -5.99706,-1.49334 -1.88433,-0.66059 -3.59586,-1.56533 -5.24273,-2.53471 -1.64687,-0.96938 -3.22896,-2.00337 -4.52359,-3.13802 -1.29463,-1.13464 -2.30137,-2.36956 -3.3082,-3.60459 0,0 0,0 0,0 0,0 2e-5,0 3.23669,-2.08269 z"
       id="path5251"
       inkscape:connector-curvature="0"
       inkscape:path-effect="#path-effect5253-3"
       inkscape:original-d="m 125.7895,151.05145 c 6.47318,-4.16563 19.41661,-12.49396 19.41661,-12.49396 0,0 2.12961,6.89227 3.19295,10.33982 -0.0292,3.7616 -0.0862,11.28765 -0.0862,11.28765 l -3.4518,1.63715 c 0,0 -4.11251,-0.83388 -6.17019,-1.24936 -1.71058,-0.90573 -3.42211,-1.81048 -5.13459,-2.71423 -1.58114,-1.03497 -3.16325,-2.06894 -4.7463,-3.10197 -1.00588,-1.23601 -3.0205,-3.7051 -3.0205,-3.7051 0,0 7.3e-4,-7.3e-4 0,0 z"
       sodipodi:nodetypes="ccsccssscc" />
    <path
       style="fill:none;fill-opacity:1;stroke:#d2d2d2;stroke-width:1.60000002;stroke-linecap:butt;stroke-linejoin:miter;stroke-miterlimit:4;stroke-dasharray:none;stroke-opacity:1"
       d="m 78.971769,203.49641 c -0.196795,-1.01437 -0.590243,-3.04238 -0.598546,-6.01626 -0.0083,-2.97387 0.368189,-6.89224 0.744782,-10.81167 0.761249,3.8046 1.522353,7.60847 2.613668,10.86509 1.091315,3.25661 2.512743,5.96489 3.219288,8.73058 0.706545,2.76569 0.698026,5.59037 0.689509,8.4141 -1.478951,-1.52369 -2.957913,-3.04739 -4.036708,-4.74223 -1.078796,-1.69484 -1.757242,-3.56029 -2.096376,-4.49276 -0.339134,-0.93248 -0.338822,-0.93248 -0.535617,-1.94685 z"
       id="path5285"
       inkscape:connector-curvature="0"
       inkscape:path-effect="#path-effect5287"
       inkscape:original-d="m 79.168564,204.51078 c -0.392473,-2.02896 -0.785928,-4.05697 -1.180339,-6.08401 0.377557,-3.92041 1.12978,-11.75829 1.12978,-11.75829 0,0 1.523468,7.60825 2.283747,11.4138 1.422368,2.70731 2.843818,5.41557 4.264268,8.12478 -0.0075,2.82278 -0.02555,8.47119 -0.02555,8.47119 0,0 -2.956935,-3.04834 -4.436853,-4.57107 -0.677482,-1.86643 -1.355937,-3.73187 -2.035365,-5.5964 z"
       sodipodi:nodetypes="cscsscscc" />
    <path
       style="fill:none;fill-opacity:1;stroke:#d2d2d2;stroke-width:1.60000002;stroke-linecap:butt;stroke-linejoin:miter;stroke-miterlimit:4;stroke-dasharray:none;stroke-opacity:1"
       d="m 94.259896,164.00696 c 1.438262,1.92436 2.876293,3.84841 4.156458,5.52878 1.280165,1.68037 2.402036,3.11649 3.523886,4.55258 -1.09308,2.90089 -2.185715,5.8006 -2.818795,8.93211 -0.63308,3.13151 -0.805605,6.49043 -0.359695,10.25377 0.44591,3.76335 1.50992,7.92675 2.8764,11.64663 1.36648,3.71988 3.03459,6.99361 5.0627,10.51231 2.02811,3.5187 4.41553,7.28108 6.80305,11.04363 0,0 -1.46703,1.80944 -1.46703,1.80944 -1.17939,-1.63714 -2.35891,-3.27446 -4.12794,-5.45725 -1.76903,-2.18279 -4.12777,-4.91135 -6.64468,-7.4388 -2.516912,-2.52746 -5.191878,-4.85374 -7.421283,-6.64893 -2.229406,-1.7952 -4.012919,-3.059 -5.796375,-4.32277 -1.093091,-2.52752 -2.186381,-5.05549 -3.03493,-7.91345 -0.848549,-2.85795 -1.452618,-6.04607 -1.682624,-8.87529 -0.230007,-2.82921 -0.08615,-5.29927 0.417443,-7.712 0.503599,-2.41273 1.366546,-4.76786 2.416646,-6.80708 1.0501,-2.03922 2.286993,-3.76255 3.667853,-5.22723 1.38086,-1.46468 2.904347,-2.67014 4.428916,-3.87645 z"
       id="path5289"
       inkscape:connector-curvature="0"
       inkscape:path-effect="#path-effect5291"
       inkscape:original-d="m 94.259896,164.00696 c 0,0 2.877378,3.8476 4.314785,5.77308 1.122918,1.43523 3.365559,4.30828 3.365559,4.30828 0,0 -2.185173,5.8008 -3.279246,8.70268 -0.171686,3.36099 -0.344098,6.71991 -0.51781,10.08132 1.065654,4.16493 2.129616,8.32834 3.192986,12.49396 1.66964,3.27383 3.33772,6.54758 5.00516,9.82284 2.38876,3.762 7.16257,11.28765 7.16257,11.28765 l -1.46703,1.80944 c 0,0 -2.35782,-3.27525 -3.53816,-4.91141 -2.35778,-2.72952 -4.71654,-5.45806 -7.07624,-8.18568 -2.674245,-2.32744 -5.349199,-4.65373 -8.025511,-6.97936 -1.782615,-1.26483 -5.350367,-3.7913 -5.350367,-3.7913 0,0 -2.185211,-5.056 -3.279272,-7.58255 -0.603106,-3.18906 -1.207157,-6.37718 -1.812201,-9.56433 0.144652,-2.47103 0.288583,-4.94108 0.43156,-7.41021 0.863963,-2.35617 1.726906,-4.71131 2.588895,-7.06556 1.237851,-1.72425 2.474748,-3.44758 3.710616,-5.16991 1.525555,-1.20729 4.573706,-3.61894 4.573706,-3.61894 z"
       sodipodi:nodetypes="cccccccccccccccccsc" />
    <path
       style="fill:none;fill-opacity:1;stroke:#d2d2d2;stroke-width:1.60000002;stroke-linecap:butt;stroke-linejoin:miter;stroke-miterlimit:4;stroke-dasharray:none;stroke-opacity:1"
       d="m 107.11792,208.52551 c -0.86306,-1.66605 -2.589,-4.99781 -3.66763,-8.87548 -1.07864,-3.87768 -1.51012,-8.30085 -1.48119,-11.63269 0.0289,-3.33185 0.51767,-5.57102 1.00667,-7.81132 0,0 3.36556,11.20149 3.36556,11.20149 0,0 0.60406,-7.84104 0.60406,-7.84104 0,0 14.06628,24.2986 14.06628,24.2986 0,0 0.43145,-9.82284 0.43145,-9.82284 0,0 7.50777,16.28522 7.50777,16.28522 0,0 0.34521,23.52311 0.34521,23.52311 0,0 -13.46215,-19.81798 -13.46215,-19.81798 0,0 -1.29447,4.3944 -1.29447,4.3944 -2.18616,-4.07848 -4.3725,-8.15731 -5.46549,-10.19637 -1.09298,-2.03906 -1.09302,-2.03906 -1.95607,-3.7051 z"
       id="path5293"
       inkscape:connector-curvature="0"
       inkscape:path-effect="#path-effect5295"
       inkscape:original-d="m 107.98097,210.19155 c -1.72493,-3.3327 -3.45089,-6.66445 -5.17776,-9.99518 -0.4305,-4.42412 -0.86199,-8.84729 -1.29443,-13.26945 0.48997,-2.24127 1.46699,-6.7209 1.46699,-6.7209 l 3.36556,11.20149 0.60406,-7.84104 14.06628,24.2986 0.43145,-9.82284 7.50777,16.28522 0.34521,23.52311 -13.46215,-19.81798 -1.29447,4.3944 c 0,0 -4.37136,-8.15792 -6.55847,-12.23543 z"
       sodipodi:nodetypes="ccsccccccccccc" />
    <path
       style="fill:none;fill-opacity:1;stroke:#d2d2d2;stroke-width:1.60000002;stroke-linecap:butt;stroke-linejoin:miter;stroke-miterlimit:4;stroke-dasharray:none;stroke-opacity:1"
       d="m 151.61404,161.78859 c 0,0 12.87534,30.82957 12.87534,30.82957 0,0 -29.96109,-15.84131 -29.96109,-15.84131 1.07804,-2.23402 2.15664,-4.46921 3.77392,-6.51015 1.61727,-2.04094 3.77332,-3.88909 6.082,-5.26989 2.30867,-1.38081 4.76866,-2.2943 7.22983,-3.20822 z"
       id="path5297"
       inkscape:connector-curvature="0"
       inkscape:path-effect="#path-effect5299"
       inkscape:original-d="m 151.61404,161.78859 12.87534,30.82957 -29.96109,-15.84131 c 0,0 2.15704,-4.46902 3.23412,-6.70206 2.15701,-1.8491 4.31306,-3.69725 6.46813,-5.54443 2.46215,-0.91488 7.3835,-2.74177 7.3835,-2.74177 z"
       sodipodi:nodetypes="cccssc" />
    <path
       style="display:inline;fill:#d2d2d2;fill-opacity:1;stroke:none;stroke-width:0.26458335px;stroke-linecap:butt;stroke-linejoin:miter;stroke-opacity:1"
       d="m 114.72757,148.37248 c 3.57988,3.57444 7.15975,7.14887 10.31264,9.70793 3.15289,2.55907 5.87847,4.10258 7.63789,5.07742 1.75941,0.97484 2.55237,1.38087 3.34563,1.78706 -1.24074,1.27949 -2.48056,2.55801 -4.11862,3.45216 -1.63807,0.89415 -3.67051,1.40149 -5.49174,1.29999 -1.82124,-0.1015 -3.42723,-0.81194 -4.84134,-2.12238 -1.4141,-1.31044 -2.63417,-3.21899 -3.68166,-5.44286 -1.04748,-2.22387 -1.92222,-4.76285 -2.42047,-7.1085 -0.49826,-2.34564 -0.62028,-4.49803 -0.74233,-6.65082 z"
       id="path5305"
       inkscape:connector-curvature="0"
       inkscape:path-effect="#path-effect5307-8"
       inkscape:original-d="m 114.72757,148.37248 c 0,0 7.1607,7.14791 10.73963,10.72331 2.72654,1.54255 5.45213,3.08606 8.17674,4.63053 0.79416,0.4052 2.37979,1.21857 2.37979,1.21857 0,0 -2.48055,2.55802 -3.72223,3.83846 -2.03463,0.50717 -4.06706,1.01453 -6.10207,1.52321 -1.60679,-0.71217 -3.21278,-1.42262 -4.8206,-2.13248 -1.2198,-1.91056 -2.43986,-3.81912 -3.66122,-5.72724 -0.87357,-2.53931 -1.74832,-5.07828 -2.6239,-7.61599 -0.12091,-2.15326 -0.36614,-6.45837 -0.36614,-6.45837 z"
       sodipodi:nodetypes="cccccccccc" />
    <path
       style="display:inline;fill:none;fill-opacity:1;stroke:#d2d2d2;stroke-width:1.60000002;stroke-linecap:butt;stroke-linejoin:miter;stroke-miterlimit:4;stroke-dasharray:none;stroke-opacity:1"
       d="m 140.00651,189.98228 c 2.27808,0.14216 4.55796,0.28444 6.91643,0.44684 2.35848,0.16241 4.79944,0.34519 7.24026,0.52796 0,0 -18.30618,-10.54053 -18.30618,-10.54053 0.7119,1.82784 1.42361,3.65518 2.11519,5.24952 0.69158,1.59433 1.36304,2.95547 2.0343,4.31621 z"
       id="path5301"
       inkscape:connector-curvature="0"
       inkscape:path-effect="#path-effect5303-0"
       inkscape:original-d="m 140.00651,189.98228 c 0,0 4.55802,0.28341 6.83423,0.42649 2.44076,0.18165 7.32246,0.54831 7.32246,0.54831 l -18.30618,-10.54053 c 0,0 1.42477,3.65473 2.13571,5.48352 0.67222,1.35976 2.01378,4.08221 2.01378,4.08221 z"
       sodipodi:nodetypes="cccccc" />
  </g>
</svg>
